<?xml version="1.0" encoding="UTF-8"?>
<svg id="Layer_2" data-name="Layer 2" xmlns="http://www.w3.org/2000/svg" xmlns:xlink="http://www.w3.org/1999/xlink" viewBox="0 0 400 400">
  <defs>
    <style>
      .cls-1 {
        stroke-width: 4.31px;
      }

      .cls-1, .cls-2 {
        stroke: #101010;
        stroke-miterlimit: 10;
      }

      .cls-1, .cls-3 {
        fill: none;
      }

      .cls-2 {
        fill: #d7d7d7;
        stroke-width: .5px;
      }

      .cls-3, .cls-4, .cls-5 {
        stroke-width: 0px;
      }

      .cls-4 {
        fill: #fff;
      }

      .cls-6 {
        clip-path: url(#clippath);
      }

      .cls-5 {
        fill: #101010;
      }
    </style>
    <clipPath id="clippath">
      <circle class="cls-3" cx="199.69" cy="199.6" r="199.6"/>
    </clipPath>
  </defs>
  <circle class="cls-5" cx="199.69" cy="199.6" r="199.6"/>
  <g class="cls-6">
    <g>
      <path class="cls-4" d="m405.61,206.6S20.9,162.03-10.29,158.53c-12.14,48.13,1.43,80.91,1.43,80.91l414.47-49.01"/>
      <path class="cls-4" d="m-6.23,191.37s384.71,44.57,415.9,48.07c12.14-48.13-1.43-80.91-1.43-80.91L-6.23,207.54"/>
      <path class="cls-4" d="m129.28-1.1C83.4,3.61,59.31,36.9,59.31,36.9l249.74,345.05S142.85,29.96,129.28-1.1Z"/>
      <path class="cls-4" d="m339.21,35.69C307.03-2.1,271.12-5.6,271.12-5.6L98.91,383.98S319.21,63.07,339.21,35.69Z"/>
      <path class="cls-4" d="m59.51,363.32c32.18,37.8,68.09,41.29,68.09,41.29L299.81,15.03S79.51,335.94,59.51,363.32Z"/>
      <path class="cls-4" d="m269.44,400.12c48.86-8.75,69.97-38,69.97-38L89.68,17.06s166.19,351.99,179.76,383.05Z"/>
      <path class="cls-4" d="m269.44,400.12c48.86-8.75,69.97-38,69.97-38L89.68,17.06s166.19,351.99,179.76,383.05Z"/>
      <path class="cls-4" d="m129.28-1.1C80.42,7.64,59.31,36.9,59.31,36.9l249.74,345.05S142.85,29.96,129.28-1.1Z"/>
    </g>
  </g>
  <circle class="cls-5" cx="199.69" cy="199.56" r="153.01"/>
  <path class="cls-4" d="m258.08,59.06c6.27,3.62,26.69,15.52,31.19,18.27-3.97,7.16-11.96,21.01-17.89,31.28,0,0-15.43-8.91-15.57-8.99l-15.85-9.16,18.13-31.4Z"/>
  <path class="cls-4" d="m322.55,111.78c3.62,6.27,15.35,26.79,17.87,31.42-7.3,4.38-21.68,12.68-32.35,18.84,0,0-8.91-15.43-8.99-15.57l-9.15-15.86,32.62-18.84Z"/>
  <path class="cls-4" d="m217.83,49.29c-7.24,0-30.87.09-36.14.21-.14,7.71-.14,22.76-.14,33.92h36.29v-34.13Z"/>
  <path class="cls-4" d="m49.38,181.26c0,7.29.1,31.11.24,36.43,8.61.14,25.42.14,37.89.14v-36.57h-38.12Z"/>
  <path class="cls-4" d="m351,217.83c0-7.29-.1-31.11-.24-36.43-8.83-.14-26.09-.14-38.89-.14,0,0,0,17.95,0,18.12v18.45s39.13,0,39.13,0Z"/>
  <path class="cls-4" d="m140.42,59.48c-6.27,3.62-26.69,15.52-31.19,18.26,3.92,7.07,11.81,20.73,17.66,30.87,0,0,15.43-8.91,15.57-8.99l15.85-9.16-17.89-30.99Z"/>
  <path class="cls-4" d="m76.81,111.83c-3.62,6.27-15.35,26.79-17.87,31.42,7.28,4.37,21.63,12.65,32.28,18.8,0,0,8.91-15.43,8.99-15.57l9.15-15.86-32.55-18.79Z"/>
  <path class="cls-4" d="m181.55,349.91c7.24,0,30.87-.09,36.14-.22.14-7.98.14-23.56.14-35.13h-36.29v35.35Z"/>
  <path class="cls-4" d="m262.31,337.02c6.27-3.62,26.68-15.53,31.17-18.3-4.74-8.49-14.23-24.92-21.27-37.12,0,0-15.43,8.91-15.57,8.99l-15.85,9.16,21.52,37.28Z"/>
  <path class="cls-4" d="m322.54,287.33c3.62-6.27,15.35-26.79,17.87-31.42-7.43-4.45-22.07-12.9-32.93-19.18,0,0-8.91,15.43-8.99,15.57l-9.15,15.86,33.2,19.17Z"/>
  <path class="cls-4" d="m77.74,286.07c-3.62-6.27-15.36-26.78-17.88-31.41,6.93-4.17,20.61-12.07,30.76-17.93,0,0,8.91,15.43,8.99,15.57l9.15,15.86-31.03,17.91Z"/>
  <path class="cls-4" d="m136.8,336.24c-6.27-3.62-26.68-15.53-31.17-18.3,4.63-8.31,13.93-24.4,20.82-36.34l15.57,8.99,15.85,9.16-21.07,36.5Z"/>
  <circle class="cls-5" cx="199.69" cy="199.6" r="128.95"/>
  <circle class="cls-1" cx="199.69" cy="199.6" r="150.31"/>
  <polygon class="cls-4" points="246.16 103.37 146.43 214.08 185.92 214.08 153.89 295.83 252.95 186.34 214.16 186.34 246.16 103.37"/>
  <g>
    <circle class="cls-2" cx="44.21" cy="97.78" r="3.47"/>
    <circle class="cls-2" cx="58.65" cy="106.31" r="3.47"/>
    <circle class="cls-2" cx="35.48" cy="113.24" r="3.47"/>
    <circle class="cls-2" cx="49.94" cy="121.75" r="3.47"/>
    <circle class="cls-2" cx="35.48" cy="282.7" r="3.47"/>
    <circle class="cls-2" cx="47.26" cy="285.86" r="3.47"/>
    <circle class="cls-2" cx="50.28" cy="273.93" r="3.47"/>
    <circle class="cls-2" cx="44.24" cy="297.79" r="3.47"/>
    <circle class="cls-2" cx="59.05" cy="289.02" r="3.47"/>
    <circle class="cls-2" cx="199.44" cy="373.7" r="3.47"/>
    <circle class="cls-2" cx="349.13" cy="273.93" r="3.47"/>
    <circle class="cls-2" cx="352.09" cy="285.79" r="3.47"/>
    <circle class="cls-2" cx="355.06" cy="297.65" r="3.47"/>
    <circle class="cls-2" cx="190.72" cy="12.81" r="3.54"/>
    <circle class="cls-2" cx="190.72" cy="21.44" r="3.54"/>
    <circle class="cls-2" cx="190.72" cy="30.06" r="3.54"/>
    <circle class="cls-2" cx="208.18" cy="12.81" r="3.54"/>
    <circle class="cls-2" cx="208.18" cy="21.44" r="3.54"/>
    <circle class="cls-2" cx="208.18" cy="30.06" r="3.54"/>
    <circle class="cls-2" cx="340.37" cy="106.32" r="4.1"/>
    <circle class="cls-2" cx="363.28" cy="112.84" r="4.1"/>
  </g>
</svg>